<?xml version="1.0" encoding="UTF-8"?>
<svg version="1.1" xmlns="http://www.w3.org/2000/svg" width="151" height="61">
<path d="M0 0 C3.88694884 1.46175854 5.00815228 3.30126163 6.75 7 C7.17796875 7.886875 7.6059375 8.77375 8.046875 9.6875 C9 12 9 12 9 14 C10.175625 13.2884375 10.175625 13.2884375 11.375 12.5625 C15.92189258 10.60263251 20.09893144 10.28089128 25 10 C22.93717023 23.85736234 22.93717023 23.85736234 16.8125 28.6875 C10.96197494 32.59604405 3.97945095 33.98649483 -3 33 C-10.12386741 31.23408357 -15.04653855 29.30082919 -19 23 C-21.35253584 18.45717216 -22.3743266 15.1157969 -22 10 C-15.741346 9.4673486 -11.54891215 11.18150494 -6 14 C-5.9071875 12.7625 -5.9071875 12.7625 -5.8125 11.5 C-4.76703783 6.99647063 -2.59542785 3.77342647 0 0 Z " fill="#151515" transform="translate(22,14)"/>
<path d="M0 0 C3.625 0.3125 3.625 0.3125 5.5625 2.3125 C5.913125 2.9725 6.26375 3.6325 6.625 4.3125 C7.285 2.9925 7.945 1.6725 8.625 0.3125 C11.595 0.3125 14.565 0.3125 17.625 0.3125 C17.625 1.6325 17.625 2.9525 17.625 4.3125 C15.645 4.3125 13.665 4.3125 11.625 4.3125 C11.625 4.9725 11.625 5.6325 11.625 6.3125 C14.49864791 6.72996608 14.49864791 6.72996608 17.625 6.3125 C19.50551585 3.95660004 19.50551585 3.95660004 20.625 1.3125 C21.625 0.3125 21.625 0.3125 24.4375 0 C27.625 0.3125 27.625 0.3125 30 1.6875 C32.51455418 5.74947213 32.38141665 9.66594056 31.625 14.3125 C30 16.9375 30 16.9375 27.625 18.3125 C23.65914842 18.80823145 21.02924088 18.40741746 17.625 16.3125 C16.965 16.9725 16.305 17.6325 15.625 18.3125 C11.48502433 18.5096417 8.54796433 18.62015478 4.625 17.3125 C4.295 17.6425 3.965 17.9725 3.625 18.3125 C-2.56575145 18.77107418 -2.56575145 18.77107418 -5.25 17.25 C-7.00839049 14.22166083 -7.25860441 11.80436773 -7.375 8.3125 C-5.0812895 0.47048977 -5.0812895 0.47048977 0 0 Z M-1.375 4.3125 C-3.26628342 6.20378342 -2.6116852 8.88317726 -2.703125 11.40234375 C-2.59484375 12.03269531 -2.4865625 12.66304687 -2.375 13.3125 C-0.89 14.3025 -0.89 14.3025 0.625 15.3125 C3.0544516 11.6683226 2.78679575 9.60008728 2.625 5.3125 C0.67896726 4.72179986 0.67896726 4.72179986 -1.375 4.3125 Z M23.625 4.3125 C22.41938816 5.29517859 22.41938816 5.29517859 22.52734375 7.16015625 C22.53894531 7.89105469 22.55054687 8.62195313 22.5625 9.375 C22.583125 10.674375 22.60375 11.97375 22.625 13.3125 C24.57103274 13.90320014 24.57103274 13.90320014 26.625 14.3125 C27.83061184 13.32982141 27.83061184 13.32982141 27.72265625 11.46484375 C27.71105469 10.73394531 27.69945312 10.00304687 27.6875 9.25 C27.666875 7.950625 27.64625 6.65125 27.625 5.3125 C25.67896726 4.72179986 25.67896726 4.72179986 23.625 4.3125 Z M6.625 9.3125 C6.625 10.9625 6.625 12.6125 6.625 14.3125 C8.935 14.3125 11.245 14.3125 13.625 14.3125 C13.955 13.3225 14.285 12.3325 14.625 11.3125 C11.53690305 9.54787317 10.39187864 9.3125 6.625 9.3125 Z " fill="#151515" transform="translate(59.375,22.6875)"/>
<path d="M0 0 C1.32 0 2.64 0 4 0 C4 5.94 4 11.88 4 18 C2.39125 18.04125 0.7825 18.0825 -0.875 18.125 C-2.23238281 18.15980469 -2.23238281 18.15980469 -3.6171875 18.1953125 C-6 18 -6 18 -8 16 C-8 15.01 -8 14.02 -8 13 C-10.64 12.67 -13.28 12.34 -16 12 C-15.67 12.66 -15.34 13.32 -15 14 C-13.02 14 -11.04 14 -9 14 C-9 15.32 -9 16.64 -9 18 C-15.0546875 18.1953125 -15.0546875 18.1953125 -17 18 C-17.66 17.34 -18.32 16.68 -19 16 C-19.33 16.66 -19.66 17.32 -20 18 C-21.32 18 -22.64 18 -24 18 C-24 14.7 -24 11.4 -24 8 C-24.99 8.33 -25.98 8.66 -27 9 C-27.33 11.97 -27.66 14.94 -28 18 C-28.99 18 -29.98 18 -31 18 C-31 14.7 -31 11.4 -31 8 C-31.99 8.33 -32.98 8.66 -34 9 C-34.33 11.97 -34.66 14.94 -35 18 C-35.99 18 -36.98 18 -38 18 C-38 13.71 -38 9.42 -38 5 C-35.39555652 4.94605295 -32.79223002 4.90635531 -30.1875 4.875 C-29.44951172 4.85824219 -28.71152344 4.84148438 -27.95117188 4.82421875 C-24.08753574 4.78925372 -22.29096332 4.80602445 -19 7 C-18.34 6.34 -17.68 5.68 -17 5 C-13.375 4.875 -13.375 4.875 -10 5 C-9.67 5.99 -9.34 6.98 -9 8 C-8.443125 7.505 -7.88625 7.01 -7.3125 6.5 C-4.61837017 4.75245633 -3.14624993 4.73781251 0 5 C0 3.35 0 1.7 0 0 Z M-15 8 C-15.33 8.66 -15.66 9.32 -16 10 C-14.68 10 -13.36 10 -12 10 C-12 9.34 -12 8.68 -12 8 C-12.99 8 -13.98 8 -15 8 Z M-3 8 C-3.66 8.66 -4.32 9.32 -5 10 C-4.67958603 12.60280568 -4.67958603 12.60280568 -4 15 C-2.68 15 -1.36 15 0 15 C0 13.02 0 11.04 0 9 C-0.99 8.67 -1.98 8.34 -3 8 Z " fill="#141414" transform="translate(131,23)"/>
<path d="M0 0 C2.58926331 2.58926331 2.37398043 4.02705279 2.625 7.625 C2.69976562 8.62789062 2.77453125 9.63078125 2.8515625 10.6640625 C2.92503906 11.82035156 2.92503906 11.82035156 3 13 C1.35425434 13.02688151 -0.29161413 13.04634123 -1.9375 13.0625 C-2.85402344 13.07410156 -3.77054688 13.08570313 -4.71484375 13.09765625 C-7 13 -7 13 -8 12 C-8.25 9.5625 -8.25 9.5625 -8 7 C-5 5 -5 5 -2 5 C-2 4.34 -2 3.68 -2 3 C-3.98 3.33 -5.96 3.66 -8 4 C-8 3.01 -8 2.02 -8 1 C-5.23749964 -0.38125018 -3.05268901 -0.19079306 0 0 Z M-4 8 C-4.33 8.66 -4.66 9.32 -5 10 C-4.01 10 -3.02 10 -2 10 C-2 9.34 -2 8.68 -2 8 C-2.66 8 -3.32 8 -4 8 Z " fill="#151515" transform="translate(148,28)"/>
<path d="M0 0 C0.99 0 1.98 0 3 0 C3 4.29 3 8.58 3 13 C2.01 13 1.02 13 0 13 C0 8.71 0 4.42 0 0 Z " fill="#151515" transform="translate(136,28)"/>
<path d="M0 0 C0.99 0 1.98 0 3 0 C3 1.32 3 2.64 3 4 C2.01 4 1.02 4 0 4 C0 2.68 0 1.36 0 0 Z " fill="#151515" transform="translate(136,23)"/>
</svg>
