<?xml version="1.0" encoding="UTF-8"?>
<svg version="1.1" xmlns="http://www.w3.org/2000/svg" width="151" height="61">
<path d="M0 0 C2.98169968 1.70030808 3.37609868 2.75219736 5 6 C5.53350688 9.513338 5.62584212 12.74831576 4 16 C2.35 16 0.7 16 -1 16 C-0.85691406 15.06027344 -0.85691406 15.06027344 -0.7109375 14.1015625 C-0.54464844 12.87566406 -0.54464844 12.87566406 -0.375 11.625 C-0.25898437 10.81289063 -0.14296875 10.00078125 -0.0234375 9.1640625 C-0.01570313 8.44992187 -0.00796875 7.73578125 0 7 C-1.7564331 4.84294485 -1.7564331 4.84294485 -3.875 4.734375 C-4.57625 4.73953125 -5.2775 4.7446875 -6 4.75 C-6.70125 4.74484375 -7.4025 4.7396875 -8.125 4.734375 C-10.2435669 4.84294485 -10.2435669 4.84294485 -12 7 C-11.99510849 10.53462587 -11.99510849 10.53462587 -11 14 C-9.06402968 15.51294288 -9.06402968 15.51294288 -7 16 C-7 16.66 -7 17.32 -7 18 C-6.278125 18.268125 -5.55625 18.53625 -4.8125 18.8125 C-2.02409874 19.98982498 0.44095724 21.39145884 3 23 C3.99 19.535 3.99 19.535 5 16 C6.875 16.625 6.875 16.625 9 18 C10.25 21.125 10.25 21.125 11 24 C12.20628008 21.66785852 13.1654738 19.50357861 14 17 C15.65 17.33 17.3 17.66 19 18 C19.495 21.465 19.495 21.465 20 25 C20.66 25 21.32 25 22 25 C22.185625 23.576875 22.185625 23.576875 22.375 22.125 C23 19 23 19 25 17 C26.32 17 27.64 17 29 17 C27.14506608 22.71937959 25.06896109 28.35555275 23 34 C21.68 34 20.36 34 19 34 C18.01 32.02 17.02 30.04 16 28 C15.01 29.98 14.02 31.96 13 34 C12.01 34 11.02 34 10 34 C7 28.375 7 28.375 7 25 C6.34 25 5.68 25 5 25 C5.2475 26.2375 5.495 27.475 5.75 28.75 C6.25483569 32.65728993 6.25483569 32.65728993 4.1875 35.4375 C0.30719911 38.20914349 -2.24935681 38.08797487 -7 38 C-7.58305225 34.15185513 -6.7002883 32.23691365 -4.5 29.1875 C-3.67780256 28.11635945 -2.84795951 27.0508641 -2 26 C-2.86625 25.44570313 -3.7325 24.89140625 -4.625 24.3203125 C-5.75023805 23.58890777 -6.8752252 22.85711693 -8 22.125 C-8.57234375 21.76019531 -9.1446875 21.39539063 -9.734375 21.01953125 C-11.19181916 20.06525233 -12.60037225 19.03722413 -14 18 C-14 17.34 -14 16.68 -14 16 C-14.66 16 -15.32 16 -16 16 C-17.62584212 12.74831576 -17.53350688 9.513338 -17 6 C-13.36224003 -1.27551993 -7.62429876 -1.55855831 0 0 Z M0 31 C-0.33 31.66 -0.66 32.32 -1 33 C-0.34 33 0.32 33 1 33 C0.67 32.34 0.34 31.68 0 31 Z " fill="#101010" transform="translate(37,6)"/>
<path d="M0 0 C3 1 3 1 4.16796875 2.84765625 C4.50441406 3.57855469 4.84085937 4.30945313 5.1875 5.0625 C5.53167969 5.79597656 5.87585938 6.52945312 6.23046875 7.28515625 C6.48441406 7.85105469 6.73835938 8.41695312 7 9 C7.21269531 8.3503125 7.42539063 7.700625 7.64453125 7.03125 C9.10999923 3.8552525 10.22339231 2.17921634 13 0 C16.19448363 -0.78278423 19.28288284 -0.87747402 22.5625 -0.875 C23.82187378 -0.88563477 23.82187378 -0.88563477 25.10668945 -0.89648438 C29.51199937 -0.73207777 31.45986857 -0.43735052 34.9765625 2.41015625 C35.64429688 3.26480469 36.31203125 4.11945312 37 5 C37.598125 5.763125 38.19625 6.52625 38.8125 7.3125 C39.4003125 8.1478125 39.4003125 8.1478125 40 9 C40.33 6.69 40.66 4.38 41 2 C42.32 1.67 43.64 1.34 45 1 C45 6.61 45 12.22 45 18 C43.68 18 42.36 18 41 18 C39.296875 16.25 39.296875 16.25 37.75 14 C37.22921875 13.2575 36.7084375 12.515 36.171875 11.75 C35.78515625 11.1725 35.3984375 10.595 35 10 C34.67 12.64 34.34 15.28 34 18 C32.68 18 31.36 18 30 18 C29.505 11.565 29.505 11.565 29 5 C26.03 5 23.06 5 20 5 C20 5.66 20 6.32 20 7 C22.64 7 25.28 7 28 7 C28 8.65 28 10.3 28 12 C25.36 12 22.72 12 20 12 C20 12.66 20 13.32 20 14 C22.64 14 25.28 14 28 14 C28.33 15.65 28.66 17.3 29 19 C27.02090602 19.02686553 25.04171029 19.04633375 23.0625 19.0625 C21.96035156 19.07410156 20.85820313 19.08570312 19.72265625 19.09765625 C17 19 17 19 16 18 C15.76518307 15.81707226 15.58636677 13.62796826 15.4375 11.4375 C15.31181641 9.64119141 15.31181641 9.64119141 15.18359375 7.80859375 C15.12300781 6.88175781 15.06242187 5.95492188 15 5 C14.74605469 5.67546875 14.49210937 6.3509375 14.23046875 7.046875 C13.71419922 8.38492187 13.71419922 8.38492187 13.1875 9.75 C12.68283203 11.07257812 12.68283203 11.07257812 12.16796875 12.421875 C11.03153178 14.93039808 9.73457073 16.87279005 8 19 C5 18 5 18 3.359375 15.234375 C2.82828125 14.08453125 2.2971875 12.9346875 1.75 11.75 C0.93789062 10.04070313 0.93789062 10.04070313 0.109375 8.296875 C-1.03450425 4.89745921 -1.08541387 3.35721035 0 0 Z " fill="#0F0F0F" transform="translate(78,22)"/>
<path d="M0 0 C1.46953125 0.01353516 1.46953125 0.01353516 2.96875 0.02734375 C3.8040625 0.03894531 4.639375 0.05054688 5.5 0.0625 C6.16 0.0625 6.82 0.0625 7.5 0.0625 C16.5 0.0625 25.5 0.0625 34.5 0.0625 C35.18707555 2.55314888 35.5 4.44136292 35.5 7.0625 C21.31 7.0625 7.12 7.0625 -7.5 7.0625 C-7.5 5.0825 -7.5 3.1025 -7.5 1.0625 C-4.88322622 -0.24588689 -2.91798478 -0.03455508 0 0 Z " fill="#171717" transform="translate(63.5,47.9375)"/>
<path d="M0 0 C0.96808594 0.00902344 1.93617187 0.01804688 2.93359375 0.02734375 C4.23490234 0.04474609 4.23490234 0.04474609 5.5625 0.0625 C6.5525 0.0625 7.5425 0.0625 8.5625 0.0625 C11.5625 0.0625 14.5625 0.0625 17.5625 0.0625 C17.5625 0.7225 17.5625 1.3825 17.5625 2.0625 C18.2225 2.0625 18.8825 2.0625 19.5625 2.0625 C19.5625 1.4025 19.5625 0.7425 19.5625 0.0625 C23.5625 0.0625 23.5625 0.0625 25.6875 0.625 C27.63841269 1.29069173 27.63841269 1.29069173 29.5625 0.0625 C29.2325 2.3725 28.9025 4.6825 28.5625 7.0625 C23.59627651 7.08715098 18.63008834 7.10533649 13.66381836 7.11743164 C11.97305684 7.1224719 10.28229971 7.12930405 8.59155273 7.13793945 C6.16649293 7.15001857 3.74149056 7.15573123 1.31640625 7.16015625 C0.17577477 7.16789818 0.17577477 7.16789818 -0.98789978 7.17579651 C-2.8048257 7.17599238 -4.62163127 7.12447277 -6.4375 7.0625 C-7.4375 6.0625 -7.4375 6.0625 -7.5 3.5 C-7.479375 2.695625 -7.45875 1.89125 -7.4375 1.0625 C-4.83452597 -0.23898702 -2.90334502 -0.03470133 0 0 Z " fill="#161616" transform="translate(107.4375,47.9375)"/>
<path d="M0 0 C3.77076889 -0.05799124 7.54142334 -0.09359306 11.3125 -0.125 C12.38435547 -0.14175781 13.45621094 -0.15851562 14.56054688 -0.17578125 C15.58857422 -0.18222656 16.61660156 -0.18867187 17.67578125 -0.1953125 C18.62364502 -0.20578613 19.57150879 -0.21625977 20.5480957 -0.22705078 C23 0 23 0 26 2 C25.125 5.875 25.125 5.875 24 7 C22.21928754 7.08726223 20.4351686 7.10699041 18.65234375 7.09765625 C17.57275391 7.09443359 16.49316406 7.09121094 15.38085938 7.08789062 C14.24455078 7.07951172 13.10824219 7.07113281 11.9375 7.0625 C10.79732422 7.05798828 9.65714844 7.05347656 8.48242188 7.04882812 C5.65489649 7.03699747 2.8274736 7.0205141 0 7 C0 4.69 0 2.38 0 0 Z " fill="#181818" transform="translate(29,48)"/>
<path d="M0 0 C2.29296875 0.1015625 2.29296875 0.1015625 5 1 C6.80078125 3.8359375 6.80078125 3.8359375 8.3125 7.375 C8.82425781 8.53773437 9.33601563 9.70046875 9.86328125 10.8984375 C11 14 11 14 11 17 C9.68 17 8.36 17 7 17 C6.34 16.01 5.68 15.02 5 14 C2 13.5 2 13.5 -1 14 C-1.99 15.485 -1.99 15.485 -3 17 C-4.32 17 -5.64 17 -7 17 C-6.37954537 12.76677156 -4.89476441 9.47709705 -2.9375 5.6875 C-2.38964844 4.61886719 -1.84179688 3.55023437 -1.27734375 2.44921875 C-0.64505859 1.23685547 -0.64505859 1.23685547 0 0 Z " fill="#0F0F0F" transform="translate(69,23)"/>
<path d="M0 0 C4.95 0 9.9 0 15 0 C15 2.31 15 4.62 15 7 C10.71 7 6.42 7 2 7 C0 3 0 3 0 0 Z " fill="#171717" transform="translate(13,48)"/>
<path d="M0 0 C1.4540625 0.0309375 1.4540625 0.0309375 2.9375 0.0625 C2.980221 1.72861905 2.97813832 3.39632885 2.9375 5.0625 C1.9375 6.0625 1.9375 6.0625 -0.625 6.125 C-1.8315625 6.0940625 -1.8315625 6.0940625 -3.0625 6.0625 C-3.44468767 4.40635343 -3.77645102 2.73792976 -4.0625 1.0625 C-3.0625 0.0625 -3.0625 0.0625 0 0 Z " fill="#101010" transform="translate(126.0625,16.9375)"/>
</svg>
