<?xml version="1.0" encoding="UTF-8"?>
<svg version="1.1" xmlns="http://www.w3.org/2000/svg" width="151" height="61">
<path d="M0 0 C5.78406969 -0.07410115 11.56786371 -0.12857885 17.35229492 -0.16479492 C19.32044283 -0.17989082 21.28855706 -0.20036948 23.2565918 -0.22631836 C26.08390612 -0.26266649 28.9107761 -0.27971814 31.73828125 -0.29296875 C33.06029289 -0.31619453 33.06029289 -0.31619453 34.40901184 -0.33988953 C35.22963608 -0.34011612 36.05026031 -0.34034271 36.89575195 -0.34057617 C37.61745071 -0.34723801 38.33914948 -0.35389984 39.0827179 -0.36076355 C41.52978289 0.09968609 42.42495885 1.12700892 44 3 C44.39316406 2.51402344 44.78632812 2.02804688 45.19140625 1.52734375 C48.1137328 -0.94053893 50.9292031 -0.46252343 54.61328125 -0.37109375 C57 0 57 0 59.625 2 C60.305625 2.99 60.305625 2.99 61 4 C61.33 2.68 61.66 1.36 62 0 C64.33333333 0 66.66666667 0 69 0 C70.12728516 -0.03480469 70.12728516 -0.03480469 71.27734375 -0.0703125 C72.15519531 -0.08835937 73.03304687 -0.10640625 73.9375 -0.125 C74.81277344 -0.14820312 75.68804687 -0.17140625 76.58984375 -0.1953125 C79 0 79 0 82 2 C82.33 1.34 82.66 0.68 83 0 C84.65 0 86.3 0 88 0 C88.495 0.99 88.495 0.99 89 2 C89.99 1.34 90.98 0.68 92 0 C94.91796875 -0.1953125 94.91796875 -0.1953125 98.1875 -0.125 C99.27417969 -0.10695313 100.36085938 -0.08890625 101.48046875 -0.0703125 C102.72763672 -0.03550781 102.72763672 -0.03550781 104 0 C103.2578125 1.953125 103.2578125 1.953125 102 4 C99.32209537 4.83886169 96.8262059 4.81766414 94 5 C94 5.66 94 6.32 94 7 C97.41728915 7.88010666 100.47748074 8.40388828 104 8 C106.93745038 5.73367185 108.96290218 3.08262816 111 0 C114.19267711 0.31002146 115.61339633 0.57146535 117.80078125 2.99609375 C118.54908203 4.20458984 118.54908203 4.20458984 119.3125 5.4375 C119.82425781 6.24058594 120.33601563 7.04367188 120.86328125 7.87109375 C122 10 122 10 122 12 C117.78250781 12.07419134 113.56536189 12.1286204 109.34741211 12.16479492 C107.91277448 12.17987589 106.47818292 12.2003438 105.04370117 12.22631836 C102.98084141 12.26273437 100.91859142 12.27973243 98.85546875 12.29296875 C96.99378052 12.31653442 96.99378052 12.31653442 95.09448242 12.34057617 C92 12 92 12 90.0715332 10.48168945 C89.54112427 9.74825317 89.54112427 9.74825317 89 9 C88.67 9.99 88.34 10.98 88 12 C86.35 12 84.7 12 83 12 C82.505 10.515 82.505 10.515 82 9 C81.505 9.48597656 81.01 9.97195312 80.5 10.47265625 C77.06565534 12.57082619 73.90380827 12.47639664 70 12.4375 C69.2884375 12.45748047 68.576875 12.47746094 67.84375 12.49804688 C64.20880545 12.49465607 62.36155832 12.2932012 59.5 9.97265625 C59.005 9.32167969 58.51 8.67070313 58 8 C57.67 9.32 57.34 10.64 57 12 C55.35 12 53.7 12 52 12 C52 9.03 52 6.06 52 3 C51.34 3 50.68 3 50 3 C48.47700477 5.93720508 47.19899698 8.9168649 46 12 C44.68 12 43.36 12 42 12 C41.773125 11.278125 41.54625 10.55625 41.3125 9.8125 C39.75168987 6.46790687 37.6968713 4.48396041 35 2 C34.83746012 4.87963429 34.83746012 4.87963429 35.6875 7 C36 9 36 9 34.96875 10.61328125 C31.97858153 12.7194515 29.41198164 12.2865683 25.8125 12.1875 C24.54019531 12.16042969 23.26789062 12.13335937 21.95703125 12.10546875 C20.49330078 12.05326172 20.49330078 12.05326172 19 12 C19.34804688 11.22269531 19.69609375 10.44539063 20.0546875 9.64453125 C21.30435346 7.04973971 21.30435346 7.04973971 20.125 4.6875 C19.75375 4.130625 19.3825 3.57375 19 3 C17.35 3.33 15.7 3.66 14 4 C14 6.64 14 9.28 14 12 C12.68 12 11.36 12 10 12 C10 9.36 10 6.72 10 4 C8.35 4 6.7 4 5 4 C5 6.64 5 9.28 5 12 C3.35 12 1.7 12 0 12 C0 8.04 0 4.08 0 0 Z M72 4 C72 5.32 72 6.64 72 8 C73.65 8 75.3 8 77 8 C77 6.68 77 5.36 77 4 C75.35 4 73.7 4 72 4 Z M112 6 C111.67 6.66 111.34 7.32 111 8 C111.99 7.67 112.98 7.34 114 7 C113.34 6.67 112.68 6.34 112 6 Z " fill="#060606" transform="translate(0,24)"/>
<path d="M0 0 C11.88 0 23.76 0 36 0 C35.34 1.32 34.68 2.64 34 4 C34.66 4.66 35.32 5.32 36 6 C35.75 8.5625 35.75 8.5625 35 11 C31.99686252 12.50156874 29.20932478 12.09281204 25.875 12.0625 C24.59367187 12.05347656 23.31234375 12.04445313 21.9921875 12.03515625 C21.00476563 12.02355469 20.01734375 12.01195312 19 12 C19.34804688 11.22269531 19.69609375 10.44539063 20.0546875 9.64453125 C21.30435346 7.04973971 21.30435346 7.04973971 20.125 4.6875 C19.75375 4.130625 19.3825 3.57375 19 3 C17.35 3.33 15.7 3.66 14 4 C14 6.64 14 9.28 14 12 C12.68 12 11.36 12 10 12 C10 9.36 10 6.72 10 4 C8.35 4 6.7 4 5 4 C5 6.64 5 9.28 5 12 C3.35 12 1.7 12 0 12 C0 8.04 0 4.08 0 0 Z " fill="#060606" transform="translate(0,24)"/>
<path d="M0 0 C9.24 0 18.48 0 28 0 C27.67 2.31 27.34 4.62 27 7 C27 8.32 27 9.64 27 11 C26 12 26 12 23.27734375 12.09765625 C21.62412109 12.08025391 21.62412109 12.08025391 19.9375 12.0625 C18.83277344 12.05347656 17.72804687 12.04445313 16.58984375 12.03515625 C15.73519531 12.02355469 14.88054687 12.01195312 14 12 C13.67 9.03 13.34 6.06 13 3 C11.35 3.33 9.7 3.66 8 4 C8 6.64 8 9.28 8 12 C6.68 12 5.36 12 4 12 C4 9.36 4 6.72 4 4 C2.35 4 0.7 4 -1 4 C-0.67 2.68 -0.34 1.36 0 0 Z " fill="#060606" transform="translate(123,24)"/>
<path d="M0 0 C6.6 0 13.2 0 20 0 C19.34 1.32 18.68 2.64 18 4 C16.68 4 15.36 4 14 4 C14 6.64 14 9.28 14 12 C12.68 12 11.36 12 10 12 C10 9.36 10 6.72 10 4 C8.35 4 6.7 4 5 4 C5 6.64 5 9.28 5 12 C3.35 12 1.7 12 0 12 C0 8.04 0 4.08 0 0 Z " fill="#131313" transform="translate(0,24)"/>
</svg>
