<?xml version="1.0" encoding="UTF-8"?>
<svg version="1.1" xmlns="http://www.w3.org/2000/svg" width="151" height="61">
<path d="M0 0 C1.45212891 -0.03867187 1.45212891 -0.03867187 2.93359375 -0.078125 C5.5625 0.25 5.5625 0.25 7.20849609 1.39672852 C9.14164884 4.04270083 8.90303958 5.97979514 8.85546875 9.23046875 C8.84580078 10.39384766 8.83613281 11.55722656 8.82617188 12.75585938 C8.80103516 13.97080078 8.77589844 15.18574219 8.75 16.4375 C8.72969727 18.27731445 8.72969727 18.27731445 8.70898438 20.15429688 C8.67358741 23.18663664 8.6242076 26.21809996 8.5625 29.25 C7.9025 29.25 7.2425 29.25 6.5625 29.25 C6.5625 29.91 6.5625 30.57 6.5625 31.25 C3.41319107 32.29976964 1.17435544 32.35131595 -2.125 32.3125 C-3.11886719 32.30347656 -4.11273438 32.29445312 -5.13671875 32.28515625 C-6.27560547 32.26775391 -6.27560547 32.26775391 -7.4375 32.25 C-7.7675 30.93 -8.0975 29.61 -8.4375 28.25 C-2.0025 27.755 -2.0025 27.755 4.5625 27.25 C4.5625 25.93 4.5625 24.61 4.5625 23.25 C3.67498047 23.30220703 3.67498047 23.30220703 2.76953125 23.35546875 C-2.12246554 23.52305755 -5.5171081 23.55783066 -9.4375 20.25 C-11.2802698 14.72169059 -11.41766758 8.47765359 -9.0625 3.125 C-6.29676439 -0.06623339 -4.07640411 0.06496262 0 0 Z M-5.4375 5.25 C-6.60093227 7.57686453 -6.63645988 9.09721413 -6.6875 11.6875 C-6.71328125 12.46996094 -6.7390625 13.25242187 -6.765625 14.05859375 C-6.59788126 16.30683799 -6.59788126 16.30683799 -5.1796875 18.01953125 C-2.0681006 20.2171767 0.85366543 19.48927965 4.5625 19.25 C6.29223114 17.52026886 5.73458117 15.22483037 5.75 12.875 C5.76417969 11.89789063 5.77835938 10.92078125 5.79296875 9.9140625 C5.75791983 7.02212978 5.75791983 7.02212978 3.5625 4.25 C0.07815724 2.68805325 -2.13514384 3.55419548 -5.4375 5.25 Z " fill="#141414" transform="translate(107.4375,18.75)"/>
<path d="M0 0 C3.49406769 1.66762322 4.82670681 2.74006022 7 6 C7 8.64 7 11.28 7 14 C1.72 14 -3.56 14 -9 14 C-8.34 15.98 -7.68 17.96 -7 20 C-2.71 20 1.58 20 6 20 C6 20.99 6 21.98 6 23 C1.3489831 25.55055766 -2.9900422 25.3203814 -8 24 C-10.45243461 22.09936318 -11.62927427 20.74145145 -13 18 C-13.42054103 13.43066001 -13.56125534 9.31895005 -11.75 5.0625 C-8.10820613 0.77038579 -5.76960641 -0.70648242 0 0 Z M-7.25 5.8125 C-9.31234752 7.92353993 -9.31234752 7.92353993 -9 11 C-5.04 11 -1.08 11 3 11 C2.67 9.35 2.34 7.7 2 6 C-1.67868406 3.54754396 -3.67228442 2.93045134 -7.25 5.8125 Z " fill="#151515" transform="translate(25,18)"/>
<path d="M0 0 C0.99 0 1.98 0 3 0 C3.07421454 3.93260944 3.12863136 7.86494722 3.16479492 11.7980957 C3.18728333 13.79327701 3.22540198 15.78826213 3.26367188 17.78320312 C3.27333984 19.03681641 3.28300781 20.29042969 3.29296875 21.58203125 C3.3086792 22.73936768 3.32438965 23.8967041 3.34057617 25.08911133 C3 28 3 28 1.72387695 29.8503418 C-1.22978477 31.82014679 -4.53930775 32 -8 32 C-11.03839696 31.25728074 -12.47782035 30.55378858 -14.61328125 28.2890625 C-16.37425951 25.38220825 -16.40058105 23.44346268 -16.375 20.0625 C-16.38273437 19.04285156 -16.39046875 18.02320312 -16.3984375 16.97265625 C-15.94819543 13.61349726 -14.99320474 11.71756451 -13 9 C-10.35541621 7.67770811 -8.32238699 7.90322806 -5.375 7.9375 C-3.87066406 7.95103516 -3.87066406 7.95103516 -2.3359375 7.96484375 C-1.56507812 7.97644531 -0.79421875 7.98804688 0 8 C0 5.36 0 2.72 0 0 Z M-10.875 12.0625 C-12.595575 15.0257125 -12.82420994 17.60139225 -13 21 C-11.9648201 24.88192461 -11.41625138 25.72249908 -8 28 C-4.36060068 27.68269476 -4.36060068 27.68269476 -1 27 C0.09506492 23.71480525 0.09960608 21.26336585 0.0625 17.8125 C0.04896484 16.18248047 0.04896484 16.18248047 0.03515625 14.51953125 C0.01775391 13.27236328 0.01775391 13.27236328 0 12 C-3.45248875 10.27375563 -7.48461578 10.14128227 -10.875 12.0625 Z " fill="#151515" transform="translate(72,11)"/>
<path d="M0 0 C2.65563802 1.8968843 3.57242527 3.14485055 5 6 C5.4091665 10.88639223 5.59828088 15.45706511 3.8125 20.0625 C1.52799538 22.50455666 0.29125547 23.28450968 -3 24 C-6.14211197 24.09555618 -9.02744496 24.05820832 -12 23 C-14.77771932 20.33358302 -15.88298829 18.65203764 -16.56640625 14.84375 C-16.55609382 6.01630939 -16.55609382 6.01630939 -14.1875 1.6875 C-9.49245411 -0.79811253 -5.20149367 -0.88962372 0 0 Z M-11 5 C-12.68025896 6.98576059 -13.00131112 8.35099329 -12.99609375 10.93359375 C-12.73617107 13.94759075 -12.36626214 16.34886731 -10.875 19 C-7.84656214 20.61516686 -5.35354507 20.3593084 -2 20 C0.01951062 19.06402685 0.01951062 19.06402685 1 17 C1.85621483 13.4434153 2.15638119 10.78190596 1.4375 7.1875 C0.09935662 4.75860691 0.09935662 4.75860691 -2.8125 3.5625 C-6.42671945 2.92469657 -7.88795643 3.0981956 -11 5 Z " fill="#141414" transform="translate(134,19)"/>
<path d="M0 0 C1.32 0 2.64 0 4 0 C5.98 4.95 7.96 9.9 10 15 C10.598125 13.63875 11.19625 12.2775 11.8125 10.875 C13.4451479 7.19718463 15.16337092 3.58142671 17 0 C18.32 0 19.64 0 21 0 C19.14405186 5.77406089 17.14245737 11.49085148 15.0625 17.1875 C14.82192871 17.86425781 14.58135742 18.54101562 14.33349609 19.23828125 C12.60750353 23.9111742 10.58248333 28.41751667 7 32 C5.00041636 32.04080783 2.99954746 32.04254356 1 32 C1 30.68 1 29.36 1 28 C2.2065625 27.5359375 2.2065625 27.5359375 3.4375 27.0625 C5.89080405 26.23664655 5.89080405 26.23664655 7 25 C6.55333451 19.47694582 4.98268854 14.80758918 2.9375 9.6875 C0 2.23283753 0 2.23283753 0 0 Z " fill="#141414" transform="translate(77,19)"/>
<path d="M0 0 C2.8100346 1.79363911 4.50940468 3.01880935 6 6 C6.08308638 7.37548156 6.10736016 8.75485796 6.09765625 10.1328125 C6.09443359 10.93847656 6.09121094 11.74414062 6.08789062 12.57421875 C6.07951172 13.41597656 6.07113281 14.25773437 6.0625 15.125 C6.05798828 15.97449219 6.05347656 16.82398437 6.04882812 17.69921875 C6.03702874 19.79950909 6.01909306 21.8997633 6 24 C4.68 24 3.36 24 2 24 C1.95101562 22.79601562 1.90203125 21.59203125 1.8515625 20.3515625 C1.77653657 18.77601802 1.70098867 17.20049834 1.625 15.625 C1.5940625 14.8309375 1.563125 14.036875 1.53125 13.21875 C1.48183579 8.63332625 1.48183579 8.63332625 -1 5 C-5.14509433 4.71397838 -5.14509433 4.71397838 -9 6 C-9.33 11.94 -9.66 17.88 -10 24 C-11.32 24 -12.64 24 -14 24 C-14 17.07 -14 10.14 -14 3 C-7.77945469 -0.11027266 -6.43567632 -0.71507515 0 0 Z " fill="#151515" transform="translate(48,18)"/>
</svg>
