<?xml version="1.0" encoding="UTF-8"?>
<svg version="1.1" xmlns="http://www.w3.org/2000/svg" width="151" height="62">
<path d="M0 0 C1.99954746 -0.04254356 4.00041636 -0.04080783 6 0 C7.65398621 1.65398621 7.25058157 3.53455344 7.3125 5.8125 C7.3007541 10.34641586 6.52866983 13.82669619 4.9375 18.0625 C2.86640431 23.6486243 2.57785657 28.20203065 4 34 C4.33 34.33 4.66 34.66 5 35 C7.98908469 30.10506601 7.98908469 30.10506601 9.6875 24.6875 C11 22 11 22 13.12109375 21.18359375 C15.41298732 20.67229768 17.66910473 20.27817269 20 20 C20 21.32 20 22.64 20 24 C18.02 24.99 18.02 24.99 16 26 C17.10041919 27.68681738 17.10041919 27.68681738 19 29 C22.14921909 28.76716851 22.14921909 28.76716851 25 28 C25.37125 26.576875 25.37125 26.576875 25.75 25.125 C27 22 27 22 29.125 20.625 C29.74375 20.41875 30.3625 20.2125 31 20 C36.78461538 23.44615385 36.78461538 23.44615385 37.875 26.25 C37.91625 26.8275 37.9575 27.405 38 28 C38.99 28 39.98 28 41 28 C40.43518386 31.95371299 39.28003407 34.71675094 37 38 C34.17116253 39.41441874 32.12623255 39.31900332 29 39 C26.73599988 36.73599988 26.01741456 35.05224368 25 32 C24.10869587 34.6739124 23.52268466 37.23723823 23 40 C21.20841511 40.02696365 19.41671527 40.04637917 17.625 40.0625 C16.62726563 40.07410156 15.62953125 40.08570313 14.6015625 40.09765625 C12 40 12 40 10 39 C9.67 38.01 9.34 37.02 9 36 C8.1646875 36.99 8.1646875 36.99 7.3125 38 C5 40 5 40 2.375 40.4375 C1.59125 40.293125 0.8075 40.14875 0 40 C-2 37 -2 37 -2 34 C-2.804375 34.804375 -3.60875 35.60875 -4.4375 36.4375 C-8 40 -8 40 -10.4375 40.1875 C-13 40 -13 40 -15 38 C-15.66 38.66 -16.32 39.32 -17 40 C-19.625 40.125 -19.625 40.125 -22 40 C-22.99 38.02 -23.98 36.04 -25 34 C-25.680625 34.639375 -26.36125 35.27875 -27.0625 35.9375 C-30.46408839 38.3258493 -32.90433701 38.67877153 -37 39 C-36.67 39.66 -36.34 40.32 -36 41 C-35.90174801 43.84352821 -35.86099517 46.65702042 -35.875 49.5 C-35.87113281 50.28503906 -35.86726563 51.07007813 -35.86328125 51.87890625 C-35.87334606 57.74669213 -35.87334606 57.74669213 -37 60 C-38.98 60 -40.96 60 -43 60 C-45.65026522 55.03075271 -45.99599184 48.60360069 -44.49560547 43.17504883 C-43.92105157 40.65352138 -43.8873108 38.38254216 -43.90234375 35.796875 C-43.90556641 34.8171875 -43.90878906 33.8375 -43.91210938 32.828125 C-43.92048828 31.81234375 -43.92886719 30.7965625 -43.9375 29.75 C-43.94201172 28.71875 -43.94652344 27.6875 -43.95117188 26.625 C-43.96293912 24.08327427 -43.97937989 21.54166681 -44 19 C-42.02 19 -40.04 19 -38 19 C-37.67 21.31 -37.34 23.62 -37 26 C-36.34 25.34 -35.68 24.68 -35 24 C-32.375 24.375 -32.375 24.375 -30 25 C-29.67 26.98 -29.34 28.96 -29 31 C-28.34 31 -27.68 31 -27 31 C-26.01 27.535 -26.01 27.535 -25 24 C-23.02 24 -21.04 24 -19 24 C-18.67 26.31 -18.34 28.62 -18 31 C-17.34 26.38 -16.68 21.76 -16 17 C-12 16 -12 16 -10 17 C-10 22.94 -10 28.88 -10 35 C-5.33557521 30.3895548 -5.33557521 30.3895548 -4.82421875 24.4921875 C-4.80037109 23.58726563 -4.77652344 22.68234375 -4.75195312 21.75 C-4.70951469 19.85698858 -4.67798081 17.96369627 -4.65820312 16.0703125 C-4.4638208 9.66925719 -3.25810785 5.52772788 0 0 Z M3 6 C2.67 8.97 2.34 11.94 2 15 C4.29013653 11.5647952 4.17842973 10.014669 4 6 C3.67 6 3.34 6 3 6 Z M32 26 C32.66 27.32 33.32 28.64 34 30 C34.33 29.01 34.66 28.02 35 27 C34.01 26.67 33.02 26.34 32 26 Z M-35 29 C-37.2773501 31.81509993 -37.2773501 31.81509993 -37 35 C-36.34 35 -35.68 35 -35 35 C-34.67 33.02 -34.34 31.04 -34 29 C-34.33 29 -34.66 29 -35 29 Z M12 31 C11.34 32.32 10.68 33.64 10 35 C11.32 34.67 12.64 34.34 14 34 C13.67 33.01 13.34 32.02 13 31 C12.67 31 12.34 31 12 31 Z M32 33 C32.99 34.485 32.99 34.485 34 36 C34 35.01 34 34.02 34 33 C33.34 33 32.68 33 32 33 Z " fill="#101010" transform="translate(77,1)"/>
</svg>
