<?xml version="1.0" encoding="UTF-8"?>
<svg version="1.1" xmlns="http://www.w3.org/2000/svg" width="333" height="87">
<path d="M0 0 C109.89 0 219.78 0 333 0 C333 28.71 333 57.42 333 87 C223.11 87 113.22 87 0 87 C0 58.29 0 29.58 0 0 Z " fill="#FEFEFE" transform="translate(0,0)"/>
<path d="M0 0 C5.61 0 11.22 0 17 0 C20 10.625 20 10.625 20 14 C20.66 14 21.32 14 22 14 C22.12375 12.80375 22.2475 11.6075 22.375 10.375 C22.77380462 6.51988866 23.70431438 3.88705687 25 0 C30.61 0 36.22 0 42 0 C42 1.98 42 3.96 42 6 C41.01 6 40.02 6 39 6 C39 12.27 39 18.54 39 25 C39.99 25 40.98 25 42 25 C42 26.98 42 28.96 42 31 C37.38 31 32.76 31 28 31 C28 29.02 28 27.04 28 25 C28.66 25 29.32 25 30 25 C29.505 20.05 29.505 20.05 29 15 C27.68 20.28 26.36 25.56 25 31 C21.7 31 18.4 31 15 31 C14.35334337 28.75023648 13.70770477 26.50018033 13.0625 24.25 C12.70285156 22.99703125 12.34320313 21.7440625 11.97265625 20.453125 C11.27588914 17.97946183 10.62329739 15.49318957 10 13 C9.67 16.96 9.34 20.92 9 25 C9.99 25 10.98 25 12 25 C12 26.98 12 28.96 12 31 C8.04 31 4.08 31 0 31 C0 29.02 0 27.04 0 25 C0.66 25 1.32 25 2 25 C2 18.73 2 12.46 2 6 C1.34 6 0.68 6 0 6 C0 4.02 0 2.04 0 0 Z " fill="#12415E" transform="translate(160,28)"/>
<path d="M0 0 C8.91 0 17.82 0 27 0 C27 3.3 27 6.6 27 10 C24.36 10 21.72 10 19 10 C19 8.68 19 7.36 19 6 C16.69 6 14.38 6 12 6 C12 7.98 12 9.96 12 12 C14.97 12 17.94 12 21 12 C21 13.98 21 15.96 21 18 C18.03 18 15.06 18 12 18 C12 20.31 12 22.62 12 25 C14.31 25 16.62 25 19 25 C19 23.68 19 22.36 19 21 C21.64 21 24.28 21 27 21 C27 24.3 27 27.6 27 31 C18.09 31 9.18 31 0 31 C0 29.02 0 27.04 0 25 C0.99 25 1.98 25 3 25 C3 18.73 3 12.46 3 6 C2.01 6 1.02 6 0 6 C0 4.02 0 2.04 0 0 Z " fill="#14425F" transform="translate(210,28)"/>
<path d="M0 0 C9.9 0 19.8 0 30 0 C30 3.96 30 7.92 30 12 C28.02 12 26.04 12 24 12 C24 10.02 24 8.04 24 6 C22.68 6 21.36 6 20 6 C20 12.27 20 18.54 20 25 C21.32 25 22.64 25 24 25 C24 26.98 24 28.96 24 31 C18.39 31 12.78 31 7 31 C7 29.02 7 27.04 7 25 C8.32 25 9.64 25 11 25 C11 18.73 11 12.46 11 6 C9.68 6 8.36 6 7 6 C7 7.98 7 9.96 7 12 C4.69 12 2.38 12 0 12 C0 8.04 0 4.08 0 0 Z " fill="#F32B2A" transform="translate(99,28)"/>
<path d="M0 0 C4.95 0 9.9 0 15 0 C15 3 15 6 15 9 C15.3062434 10.33981486 15.63451555 11.67511887 16 13 C16.66 13 17.32 13 18 13 C18.66 11.02 19.32 9.04 20 7 C19.67 6.67 19.34 6.34 19 6 C19 4.02 19 2.04 19 0 C22.96 0 26.92 0 31 0 C31 1.98 31 3.96 31 6 C30.01 6.33 29.02 6.66 28 7 C26.1134708 9.56473473 26.1134708 9.56473473 24.375 12.6875 C23.76398438 13.72261719 23.15296875 14.75773437 22.5234375 15.82421875 C21.01551738 18.96765223 20.38239479 21.55327935 20 25 C20.99 25 21.98 25 23 25 C23 26.98 23 28.96 23 31 C18.05 31 13.1 31 8 31 C8 29.02 8 27.04 8 25 C8.99 25 9.98 25 11 25 C9.76065454 19.29901089 7.38228757 15.04218609 4.2421875 10.13671875 C3 8 3 8 3 6 C2.01 6 1.02 6 0 6 C0 4.02 0 2.04 0 0 Z " fill="#154460" transform="translate(276,28)"/>
<path d="M0 0 C3.22886009 -0.11667875 6.45717445 -0.18740546 9.6875 -0.25 C11.05551758 -0.30027344 11.05551758 -0.30027344 12.45117188 -0.3515625 C16.63483075 -0.41241572 19.35762973 -0.3223821 23.14453125 1.578125 C25 4 25 4 25.72265625 7.28515625 C24.71296151 12.47553299 22.17524707 14.85880599 18.4375 18.4375 C17.82841797 19.07365234 17.21933594 19.70980469 16.59179688 20.36523438 C13.44891762 23.46155246 11.71955981 24.8721287 7.28515625 25.66015625 C4 25 4 25 1.578125 23.671875 C-0.95081709 19.39020076 -0.4184804 15.11649157 -0.25 10.25 C-0.23195313 9.26644531 -0.21390625 8.28289063 -0.1953125 7.26953125 C-0.14824126 4.84536217 -0.08250742 2.42317941 0 0 Z " fill="#073A58" transform="translate(29,45)"/>
<path d="M0 0 C1.7043457 1.24145508 1.7043457 1.24145508 3 3 C3.34057617 5.26831055 3.34057617 5.26831055 3.29296875 7.88671875 C3.28330078 8.82451172 3.27363281 9.76230469 3.26367188 10.72851562 C3.23853516 11.70498047 3.21339844 12.68144531 3.1875 13.6875 C3.16719727 15.16959961 3.16719727 15.16959961 3.14648438 16.68164062 C3.11112203 19.12164231 3.06177033 21.56054719 3 24 C-0.41637953 24.11632513 -3.83224897 24.18728897 -7.25 24.25 C-8.21808594 24.28351562 -9.18617187 24.31703125 -10.18359375 24.3515625 C-17.23999445 24.44889216 -17.23999445 24.44889216 -20.671875 22.421875 C-22.60177473 18.90264608 -22.69883849 16.96569796 -22 13 C-20.19421845 10.34927112 -17.98816422 8.27876992 -15.625 6.125 C-14.72007813 5.25488281 -14.72007813 5.25488281 -13.796875 4.3671875 C-8.90802572 -0.28265137 -6.99403977 -1.47242942 0 0 Z " fill="#083A58" transform="translate(26,21)"/>
<path d="M0 0 C4.62 0 9.24 0 14 0 C14 1.98 14 3.96 14 6 C13.34 6 12.68 6 12 6 C12 12.27 12 18.54 12 25 C13.65 25 15.3 25 17 25 C17 23.02 17 21.04 17 19 C19.64 19 22.28 19 25 19 C25 22.96 25 26.92 25 31 C16.75 31 8.5 31 0 31 C0 29.02 0 27.04 0 25 C0.99 25 1.98 25 3 25 C3 18.73 3 12.46 3 6 C2.01 6 1.02 6 0 6 C0 4.02 0 2.04 0 0 Z " fill="#164460" transform="translate(245,28)"/>
<path d="M0 0 C4.95 0 9.9 0 15 0 C15 1.98 15 3.96 15 6 C14.01 6 13.02 6 12 6 C12 12.27 12 18.54 12 25 C12.99 25 13.98 25 15 25 C15 26.98 15 28.96 15 31 C10.05 31 5.1 31 0 31 C0 29.02 0 27.04 0 25 C0.99 25 1.98 25 3 25 C3 18.73 3 12.46 3 6 C2.01 6 1.02 6 0 6 C0 4.02 0 2.04 0 0 Z " fill="#11405D" transform="translate(137,28)"/>
<path d="M0 0 C1.98 0 3.96 0 6 0 C6 17.16 6 34.32 6 52 C4.02 52 2.04 52 0 52 C0 34.84 0 17.68 0 0 Z " fill="#28526D" transform="translate(78,19)"/>
<path d="M0 0 C4.62 0 9.24 0 14 0 C14 4.29 14 8.58 14 13 C12.34050228 11.57757338 10.68126232 10.15484477 9.0234375 8.73046875 C7.67961097 7.5812117 6.33066453 6.43791326 4.9765625 5.30078125 C4.34492187 4.76839844 3.71328125 4.23601563 3.0625 3.6875 C2.47597656 3.19636719 1.88945313 2.70523437 1.28515625 2.19921875 C0.86105469 1.80347656 0.43695313 1.40773438 0 1 C0 0.67 0 0.34 0 0 Z " fill="#F52121" transform="translate(40,20)"/>
<path d="M0 0 C4.89599781 4.01471821 8.98528179 8.10400219 13 13 C8.71 13 4.42 13 0 13 C0 8.71 0 4.42 0 0 Z " fill="#F62021" transform="translate(4,57)"/>
<path d="M0 0 C0.33 0 0.66 0 1 0 C2.32 5.94 3.64 11.88 5 18 C3.35 17.67 1.7 17.34 0 17 C0 11.39 0 5.78 0 0 Z " fill="#CFD8DE" transform="translate(169,36)"/>
<path d="M0 0 C0.33 0 0.66 0 1 0 C1 3.96 1 7.92 1 12 C-0.32 12.33 -1.64 12.66 -3 13 C-2.69128878 11.20767663 -2.37790936 9.41615679 -2.0625 7.625 C-1.88847656 6.62726562 -1.71445313 5.62953125 -1.53515625 4.6015625 C-1 2 -1 2 0 0 Z " fill="#EEF1F3" transform="translate(189,41)"/>
</svg>
