<?xml version="1.0" encoding="UTF-8"?>
<svg version="1.1" xmlns="http://www.w3.org/2000/svg" width="384" height="101">
<path d="M0 0 C126.72 0 253.44 0 384 0 C384 33.33 384 66.66 384 101 C257.28 101 130.56 101 0 101 C0 67.67 0 34.34 0 0 Z " fill="#FDF4D5" transform="translate(0,0)"/>
<path d="M0 0 C6.93 0 13.86 0 21 0 C24.21428571 12.05357143 24.21428571 12.05357143 24 18 C24.66 17.67 25.32 17.34 26 17 C26.80290607 14.13708309 27.49564777 11.33768063 28.125 8.4375 C28.74375 5.653125 29.3625 2.86875 30 0 C36.93 0 43.86 0 51 0 C51 2.31 51 4.62 51 7 C50.01 7 49.02 7 48 7 C48 14.26 48 21.52 48 29 C48.66 29 49.32 29 50 29 C50 31.31 50 33.62 50 36 C44.72 36 39.44 36 34 36 C34 34.02 34 32.04 34 30 C34.99 30 35.98 30 37 30 C36.505 21.09 36.505 21.09 36 12 C35.566875 14.083125 35.13375 16.16625 34.6875 18.3125 C33.34092652 24.61574634 31.75936001 30.80035043 30 37 C26.04 37 22.08 37 18 37 C17.65066406 35.57945313 17.30132812 34.15890625 16.94140625 32.6953125 C16.48189477 30.83851099 16.02225258 28.98174183 15.5625 27.125 C15.33240234 26.18785156 15.10230469 25.25070313 14.86523438 24.28515625 C14.64287109 23.38925781 14.42050781 22.49335937 14.19140625 21.5703125 C13.98717041 20.74289551 13.78293457 19.91547852 13.57250977 19.06298828 C13.05992006 16.96004845 13.05992006 16.96004845 12 15 C11.67 19.95 11.34 24.9 11 30 C11.99 30 12.98 30 14 30 C14 31.98 14 33.96 14 36 C9.71 36 5.42 36 1 36 C1 34.02 1 32.04 1 30 C1.66 30 2.32 30 3 30 C3 22.41 3 14.82 3 7 C2.01 7 1.02 7 0 7 C0 4.69 0 2.38 0 0 Z " fill="#2C4335" transform="translate(191,31)"/>
<path d="M0 0 C10.56 0 21.12 0 32 0 C32 3.63 32 7.26 32 11 C29.03 11 26.06 11 23 11 C23 9.68 23 8.36 23 7 C20.36 7 17.72 7 15 7 C15 9.31 15 11.62 15 14 C18.3 14 21.6 14 25 14 C25 16.31 25 18.62 25 21 C21.7 21 18.4 21 15 21 C15 23.64 15 26.28 15 29 C17.31 29 19.62 29 22 29 C22 27.68 22 26.36 22 25 C25.3 25 28.6 25 32 25 C32 28.96 32 32.92 32 37 C21.44 37 10.88 37 0 37 C0 34.36 0 31.72 0 29 C0.99 29 1.98 29 3 29 C3 21.74 3 14.48 3 7 C2.01 7 1.02 7 0 7 C0 4.69 0 2.38 0 0 Z " fill="#344A3A" transform="translate(251,31)"/>
<path d="M0 0 C4.96622349 -0.02465098 9.93241166 -0.04283649 14.89868164 -0.05493164 C16.58944316 -0.0599719 18.28020029 -0.06680405 19.97094727 -0.07543945 C22.39600707 -0.08751857 24.82100944 -0.09323123 27.24609375 -0.09765625 C28.38672523 -0.10539818 28.38672523 -0.10539818 29.55039978 -0.11329651 C31.3673257 -0.11349238 33.18413127 -0.06197277 35 0 C36 1 36 1 36.09765625 4.16015625 C36.08605469 5.44792969 36.07445312 6.73570313 36.0625 8.0625 C36.05347656 9.35285156 36.04445312 10.64320312 36.03515625 11.97265625 C36.02355469 12.97167969 36.01195312 13.97070312 36 15 C33.03 15 30.06 15 27 15 C27 12.69 27 10.38 27 8 C25.68 8 24.36 8 23 8 C23 15.59 23 23.18 23 31 C24.32 31 25.64 31 27 31 C27 32.98 27 34.96 27 37 C20.73 37 14.46 37 8 37 C8 35.02 8 33.04 8 31 C9.32 31 10.64 31 12 31 C12 23.41 12 15.82 12 8 C10.68 8 9.36 8 8 8 C8 10.31 8 12.62 8 15 C5.66705225 15.04241723 3.33297433 15.04092937 1 15 C0 14 0 14 -0.09765625 10.83984375 C-0.08025391 8.90818359 -0.08025391 8.90818359 -0.0625 6.9375 C-0.05347656 5.64714844 -0.04445313 4.35679688 -0.03515625 3.02734375 C-0.02355469 2.02832031 -0.01195313 1.02929688 0 0 Z " fill="#F94212" transform="translate(119,30)"/>
<path d="M0 0 C4.6 2.2 4.6 2.2 6 5 C6.084915 6.8863912 6.107193 8.77578515 6.09765625 10.6640625 C6.09443359 11.78554688 6.09121094 12.90703125 6.08789062 14.0625 C6.07951172 15.238125 6.07113281 16.41375 6.0625 17.625 C6.05798828 18.80835937 6.05347656 19.99171875 6.04882812 21.2109375 C6.03701467 24.14067507 6.02054258 27.07031272 6 30 C1.75035873 30.14513802 -2.49864635 30.23402037 -6.75 30.3125 C-7.9565625 30.35439453 -9.163125 30.39628906 -10.40625 30.43945312 C-11.56640625 30.45556641 -12.7265625 30.47167969 -13.921875 30.48828125 C-14.99018555 30.51446533 -16.05849609 30.54064941 -17.15917969 30.56762695 C-20 30 -20 30 -22.33691406 27.70776367 C-24.13315078 24.78320974 -24.76196396 22.55609632 -24.57421875 19.10546875 C-23.39998848 14.79995776 -20.11616051 12.03431014 -17 9 C-16.28199219 8.25878906 -15.56398438 7.51757812 -14.82421875 6.75390625 C-9.73323169 1.53261971 -7.61104929 -0.51600334 0 0 Z " fill="#263E32" transform="translate(29,21)"/>
<path d="M0 0 C5.94 0 11.88 0 18 0 C18 1.98 18 3.96 18 6 C17.34 6 16.68 6 16 6 C16 6.99 16 7.98 16 9 C16.66 9 17.32 9 18 9 C18.33 10.98 18.66 12.96 19 15 C19.66 15 20.32 15 21 15 C21.144375 14.4225 21.28875 13.845 21.4375 13.25 C21.80887408 11.76450367 22.20434301 10.28479948 22.625 8.8125 C22.74875 8.214375 22.8725 7.61625 23 7 C22.67 6.67 22.34 6.34 22 6 C22 4.02 22 2.04 22 0 C26.62 0 31.24 0 36 0 C36 1.98 36 3.96 36 6 C35.01 6 34.02 6 33 6 C32.80664062 6.61488281 32.61328125 7.22976562 32.4140625 7.86328125 C32.15367187 8.67152344 31.89328125 9.47976562 31.625 10.3125 C31.36976563 11.11300781 31.11453125 11.91351563 30.8515625 12.73828125 C30 15 30 15 28 18 C27.34 18 26.68 18 26 18 C25.34 21.63 24.68 25.26 24 29 C24.99 29 25.98 29 27 29 C27 31.64 27 34.28 27 37 C21.06 37 15.12 37 9 37 C9 34.69 9 32.38 9 30 C10.32 30 11.64 30 13 30 C12.85217479 22.16526413 9.40894381 17.30285501 5 11 C4.34 10.01 3.68 9.02 3 8 C2.01 7.67 1.02 7.34 0 7 C0 4.69 0 2.38 0 0 Z " fill="#324838" transform="translate(330,31)"/>
<path d="M0 0 C3.89543877 -0.14553599 7.79017651 -0.23415059 11.6875 -0.3125 C13.34168945 -0.3753418 13.34168945 -0.3753418 15.02929688 -0.43945312 C23.20473784 -0.56294921 23.20473784 -0.56294921 27.22265625 2.28125 C29.1319482 5.20183724 29.84463935 7.37398184 29.61328125 10.890625 C28.3671119 15.17681257 25.12063339 17.95798722 22 21 C21.03320312 22.01900391 21.03320312 22.01900391 20.046875 23.05859375 C16.6423456 26.61332298 16.6423456 26.61332298 15 28 C14.34 28 13.68 28 13 28 C13 28.66 13 29.32 13 30 C11.58603027 30.13595863 10.16823316 30.23243845 8.75 30.3125 C7.96109375 30.37050781 7.1721875 30.42851563 6.359375 30.48828125 C2.84507213 29.76098347 1.93993065 27.93714786 0 25 C-0.45410156 22.13745117 -0.45410156 22.13745117 -0.390625 19.04296875 C-0.37773438 17.93115234 -0.36484375 16.81933594 -0.3515625 15.67382812 C-0.31804688 14.52333984 -0.28453125 13.37285156 -0.25 12.1875 C-0.23195312 11.01767578 -0.21390625 9.84785156 -0.1953125 8.64257812 C-0.1482644 5.7608822 -0.08253709 2.88086203 0 0 Z " fill="#243C31" transform="translate(35,51)"/>
<path d="M0 0 C5.28 0 10.56 0 16 0 C16 1.98 16 3.96 16 6 C15.34 6 14.68 6 14 6 C14 13.92 14 21.84 14 30 C15.98 30 17.96 30 20 30 C20 27.36 20 24.72 20 22 C23.3 22 26.6 22 30 22 C30 26.95 30 31.9 30 37 C20.1 37 10.2 37 0 37 C0 34.69 0 32.38 0 30 C0.99 30 1.98 30 3 30 C3 22.41 3 14.82 3 7 C2.01 7 1.02 7 0 7 C0 4.69 0 2.38 0 0 Z " fill="#344A3A" transform="translate(293,31)"/>
<path d="M0 0 C5.94 0 11.88 0 18 0 C18 2.31 18 4.62 18 7 C16.68 7 15.36 7 14 7 C14 14.26 14 21.52 14 29 C15.32 29 16.64 29 18 29 C18 31.64 18 34.28 18 37 C12.06 37 6.12 37 0 37 C0 34.36 0 31.72 0 29 C0.99 29 1.98 29 3 29 C3 21.74 3 14.48 3 7 C2.01 7 1.02 7 0 7 C0 4.69 0 2.38 0 0 Z " fill="#314738" transform="translate(164,31)"/>
<path d="M0 0 C1.98 0 3.96 0 6 0 C6 20.13 6 40.26 6 61 C4.02 61 2.04 61 0 61 C0 40.87 0 20.74 0 0 Z " fill="#304635" transform="translate(94,20)"/>
<path d="M0 0 C0.66 0 1.32 0 2 0 C3.47012143 1.70534086 4.87675878 3.46572059 6.25 5.25 C9.58744136 9.45010795 12.42377172 12.30119871 17 15 C17 15.66 17 16.32 17 17 C11.39 17 5.78 17 0 17 C0 11.39 0 5.78 0 0 Z " fill="#FA491C" transform="translate(4,64)"/>
<path d="M0 0 C5.61 0 11.22 0 17 0 C17 5.28 17 10.56 17 16 C16.34 16 15.68 16 15 16 C13.5546875 14.49609375 13.5546875 14.49609375 11.875 12.4375 C8.69609477 8.67635318 5.28312709 5.49581175 1.50390625 2.34765625 C1.00761719 1.90292969 0.51132812 1.45820313 0 1 C0 0.67 0 0.34 0 0 Z " fill="#FA4015" transform="translate(48,21)"/>
<path d="M0 0 C0.33 0 0.66 0 1 0 C1 7.59 1 15.18 1 23 C0.34 23 -0.32 23 -1 23 C-1 24.98 -1 26.96 -1 29 C3.29 29 7.58 29 12 29 C12 27.02 12 25.04 12 23 C11.01 23 10.02 23 9 23 C9 16.73 9 10.46 9 4 C13.65727542 13.31455084 14.21396322 19.51577222 13 30 C8.05 30 3.1 30 -2 30 C-2 27.36 -2 24.72 -2 22 C-1.34 22 -0.68 22 0 22 C0 14.74 0 7.48 0 0 Z " fill="#ABAB7D" transform="translate(193,38)"/>
<path d="M0 0 C0.33 0 0.66 0 1 0 C1 6.6 1 13.2 1 20 C0.01 20 -0.98 20 -2 20 C-2 21.98 -2 23.96 -2 26 C3.28 26 8.56 26 14 26 C14 24.02 14 22.04 14 20 C14.33 20 14.66 20 15 20 C15 22.31 15 24.62 15 27 C9.06 27 3.12 27 -3 27 C-3.33 25.35 -3.66 23.7 -4 22 C-4.21269531 21.32324219 -4.42539063 20.64648438 -4.64453125 19.94921875 C-5.09498348 17.47915654 -4.5835228 16.1438579 -3.6875 13.8125 C-2.04300453 9.27127856 -0.95046098 4.72994113 0 0 Z " fill="#A1A47C" transform="translate(227,41)"/>
<path d="M0 0 C2.64 0 5.28 0 8 0 C8 1.32 8 2.64 8 4 C10.97 4 13.94 4 17 4 C17 4.66 17 5.32 17 6 C15.02 6 13.04 6 11 6 C11 8.64 11 11.28 11 14 C10.67 14 10.34 14 10 14 C10 11.69 10 9.38 10 7 C6.7 7 3.4 7 0 7 C0 4.69 0 2.38 0 0 Z " fill="#E0D8A9" transform="translate(266,38)"/>
<path d="M0 0 C3.29164829 -0.02895225 6.58326399 -0.0467823 9.875 -0.0625 C10.81214844 -0.07087891 11.74929688 -0.07925781 12.71484375 -0.08789062 C14.05869141 -0.09272461 14.05869141 -0.09272461 15.4296875 -0.09765625 C16.67081299 -0.10551147 16.67081299 -0.10551147 17.93701172 -0.11352539 C20 0 20 0 22 1 C23.81061651 5.55049123 24.40252114 8.95710432 22.625 13.5625 C22.08875 14.366875 21.5525 15.17125 21 16 C20.34 16 19.68 16 19 16 C18.67 14.02 18.34 12.04 18 10 C17.34 10 16.68 10 16 10 C16 9.01 16 8.02 16 7 C16.66 7 17.32 7 18 7 C18 5.02 18 3.04 18 1 C12.06 1 6.12 1 0 1 C0 0.67 0 0.34 0 0 Z " fill="#E0D8AA" transform="translate(330,30)"/>
<path d="M0 0 C5.94 0 11.88 0 18 0 C18 0.66 18 1.32 18 2 C15.39590255 2.16781295 12.7917318 2.33429651 10.1875 2.5 C9.08051758 2.57154297 9.08051758 2.57154297 7.95117188 2.64453125 C4.96175412 2.83390613 1.99625426 3 -1 3 C-0.67 2.01 -0.34 1.02 0 0 Z " fill="#FDDDAC" transform="translate(47,19)"/>
<path d="M0 0 C0.66 0.33 1.32 0.66 2 1 C-1.16336172 4.88641583 -4.40414808 8.49877576 -8 12 C-8.598125 12.598125 -9.19625 13.19625 -9.8125 13.8125 C-10.204375 14.204375 -10.59625 14.59625 -11 15 C-11.99 14.67 -12.98 14.34 -14 14 C-9.38 9.38 -4.76 4.76 0 0 Z " fill="#5C6742" transform="translate(20,22)"/>
<path d="M0 0 C1.98 0 3.96 0 6 0 C6.33 1.65 6.66 3.3 7 5 C4.69 5 2.38 5 0 5 C0 3.35 0 1.7 0 0 Z " fill="#FEF5D7" transform="translate(267,39)"/>
<path d="M0 0 C0.33 0 0.66 0 1 0 C1 4.62 1 9.24 1 14 C0.01 14 -0.98 14 -2 14 C-1.85795259 12.41632253 -1.71119847 10.83306682 -1.5625 9.25 C-1.48128906 8.36828125 -1.40007812 7.4865625 -1.31640625 6.578125 C-1.03761535 4.30649548 -0.61209423 2.20148177 0 0 Z " fill="#FBF1CB" transform="translate(226,46)"/>
<path d="M0 0 C2.56616632 3.84924948 2.55097676 6.4349304 3 11 C2.01 11 1.02 11 0 11 C0 7.37 0 3.74 0 0 Z " fill="#F8EDC1" transform="translate(203,49)"/>
<path d="M0 0 C0.99 0.33 1.98 0.66 3 1 C2.67 3.31 2.34 5.62 2 8 C1.01 8 0.02 8 -1 8 C-1.125 2.25 -1.125 2.25 0 0 Z " fill="#E6DAA4" transform="translate(3,37)"/>
</svg>
